<?xml version="1.0" encoding="utf-8"?>
<!-- Generator: Adobe Illustrator 25.2.1, SVG Export Plug-In . SVG Version: 6.00 Build 0)  -->
<svg version="1.1" id="Capa_1" xmlns="http://www.w3.org/2000/svg" xmlns:xlink="http://www.w3.org/1999/xlink" x="0px" y="0px"
	 viewBox="0 0 441.2 404.4" style="enable-background:new 0 0 441.2 404.4;" xml:space="preserve">
<path d="M420.1,184.2c-4.7-29.1-9.3-58.2-14-87.3c-1.4-5.6-4.5-15.3-12.3-25c-9.8-12.2-21.6-17.5-27.2-19.6
	c-41.8-7.5-73.2-12.8-87.9-15.5c-3.5-0.6-11-2-20.5-0.4c-6.8,1.1-12.1,3.3-15.1,4.7c-10.3-1.4-20.5-2.8-30.8-4.2
	c-5.8-0.9-15.5-1.6-26.8,1.3c-8.7,2.2-15.4,5.8-19.8,8.6c-45.6,46.5-91.2,92.9-136.8,139.4c-2.8,5.3-9.7,19.7-7.4,38.5
	c1.7,14.3,7.8,24.5,11.3,29.5c33.9,33.9,67.7,67.8,101.6,101.8c4.5,3.3,17.4,12.1,36.3,12.6c17.3,0.4,29.9-6.4,34.7-9.4
	c5.3,3.1,17.1,9.1,33.2,9.1c19.9,0,33.8-9.1,38.6-12.5c40.5-40.4,81-80.8,121.6-121.2c4.2-3.8,11.1-11,16-22.3
	C419.9,200.6,420.3,190,420.1,184.2z M162,339.1c-5.9-1.9-9.9-5.1-12.1-7c-9.9-8.6-46.2-44.8-94.5-94.8c-1.8-2.4-6.6-9.7-6.7-20.2
	c-0.1-11.5,5.6-19.3,7.4-21.5c41.5-41.4,83-82.8,124.4-124.1c2.5-1.9,7.4-5.1,14.4-6.5c7.8-1.6,14.2-0.2,17.3,0.8
	c-37.2,37.7-74.4,75.3-111.7,113c-3.2,4.3-15.3,21.6-12.8,45.4c1.6,15.8,8.9,26.9,12.7,31.9c27.2,27.7,54.4,55.4,81.6,83.1
	C178.9,340,171.1,342,162,339.1z M320.6,195.6c-3,10.6-9.3,17.5-11.9,20.2c-3.2,3.4-6.1,6.4-10.9,7.7c-1.2,0.3-10.8,2.8-16.4-3.4
	c-4.5-5-3.6-12.8-1.1-17.4c2.8-5,6.3-4.2,9.9-9.6c3-4.4,4.5-10.8,2.9-16.3c-2.4-8.2-10.5-14.5-19.3-14.5c-0.8,0-8.9,0.1-14.4,6.5
	c-3.1,3.6-3.9,7.6-4.2,9.2c-0.9,4.8,0,8.5,0.2,9.4c1.6,5.9,5.2,7.8,9.3,13c0,0,4.1,5.3,7.6,15.5c4.9,14.6,0.9,37.5-15.1,50.8
	c-10.7,8.9-22.8,10.1-27.2,10.5c-12.2,1.1-21.6-2.4-26.2-4.4c-7.1,8.7-18.6,9.2-23.8,4.6c-5.5-5-5.6-17.6,3.8-25.3
	c-2.3-4.4-5.8-12.5-5.6-22.8c0.4-20,14.6-41.2,28.9-42c0.9,0,7-0.3,11,3.8c4.2,4.2,4.6,11.3,2.4,16.3c-2.1,4.8-5.3,4.3-9.2,9.7
	c-1.1,1.5-6.1,8.5-4.5,16.6c1.7,8.3,10.1,15.3,19.2,15.4c7.1,0.1,12-4,12.9-4.8c5.5-4.9,7.5-12.9,6.3-19.4c-1.4-7.7-6.7-9-11.8-16.6
	c-9.4-13.8-6.8-30.8-6.2-34.1c2.2-12.7,10.3-27.7,26.2-35.4c20.8-10,40.3-0.5,42.6,0.6c7.4-9.3,19.8-9.4,24.8-4.1
	c4.9,5.2,4.4,17.2-4.9,24.3C317.9,163.1,325.5,178.1,320.6,195.6z M341.3,128.3c-7.5,0-13.6-6.1-13.6-13.6s6.1-13.6,13.6-13.6
	c7.5,0,13.6,6.1,13.6,13.6S348.8,128.3,341.3,128.3z"/>
</svg>
