<?xml version="1.0" encoding="utf-8"?>
<!-- Generator: Adobe Illustrator 25.2.1, SVG Export Plug-In . SVG Version: 6.00 Build 0)  -->
<svg version="1.1" id="Capa_1" xmlns="http://www.w3.org/2000/svg" xmlns:xlink="http://www.w3.org/1999/xlink" x="0px" y="0px"
	 viewBox="0 0 800 800" style="enable-background:new 0 0 800 800;" xml:space="preserve">
<path d="M759.1,111.3L408.2,18.2c-5.5-1.4-11.1-1.4-16.4,0L40.9,111.3c-14.1,3.8-23.9,16.6-23.8,31.1c1.9,248.8,134.8,480.2,365,635
	c5.3,3.6,11.6,5.5,17.8,5.5s12.5-1.9,18-5.5c230.2-154.8,363.3-386.4,365-635C782.9,127.9,773.2,115.1,759.1,111.3z M389.9,647.9
	c-6.4-86.2-11.6-171.8-18-258.1c-31.3,11.5-62.9,22.1-93.6,32.3c1.6-75.1,2.8-151.1,4.4-226.2c39.3-13.1,78.9-25.3,118.2-38.4
	c-3.5,50.2-7.9,100.6-11.4,150.8c32.6-10.9,65.2-21.8,97.7-32.6C454,399.7,422.1,524.3,389.9,647.9z"/>
</svg>
