<?xml version="1.0" encoding="utf-8"?>
<!-- Generator: Adobe Illustrator 25.2.1, SVG Export Plug-In . SVG Version: 6.00 Build 0)  -->
<svg version="1.1" id="Layer_1" xmlns="http://www.w3.org/2000/svg" xmlns:xlink="http://www.w3.org/1999/xlink" x="0px" y="0px"
	 viewBox="0 0 229.8 283.4" style="enable-background:new 0 0 229.8 283.4;" xml:space="preserve">
<style type="text/css">
	.st0{fill:#010101;}
</style>
<path class="st0" d="M105.8,14.6c3.6-0.6,8.4-1,14-0.8c1.8,0.1,7.9,0.4,16.1,2.4c16.4,4.1,27.6,11.9,29.9,13.6
	c6.4,4.6,12.2,10.1,17.4,16.7c12.9,16.3,20.2,34.7,21.4,55.4c0.2,3,1.2,4.4,3.5,5.7c5.4,2.9,8.8,7,8.7,13.7c-0.2,13.5,0,27-0.1,40.5
	c0,6.1-2.2,10.9-7.8,14c-1.5,0.9-2.7,3.1-3.1,5c-1.6,6.6-2.2,13.4-4.2,19.8c-6.7,21.2-18.9,38.1-38.5,49.4c-3.4,1.9-7.3,4.2-9,7.4
	c-2.1,3.8-4.8,5.8-8.4,7.3c-5,2-9.9,4-14.9,6c-3,0-6.1,0-9.6-0.4c-4.9-2.6-6.7-6.7-6.2-11.2c0.5-4.8,3.6-8.1,8.5-9.5
	c2.1-0.6,4.1-1.8,6.3-2.4c6.3-1.5,12-6.8,19.2-3.1c0.5,0.3,1.5-0.2,2.1-0.5c6.3-4.2,13.1-7.8,18.8-12.7c14.6-12.8,21.4-30,24.8-48.7
	c0.4-2-0.2-5.7-1.4-6.2c-5.9-2.5-8.1-7.1-9-13.6c-4.7,20.9-11.6,40.4-25.1,57.2c-9.1,11.4-21.4,18.7-36.1,19.9
	c-21.8,1.8-38.2-7.8-50.5-25.4c-10.8-15.5-16.8-33-21.3-51.1c-0.2,0.4-0.4,0.6-0.5,0.9c-0.2,7.6-6.5,14.8-18.3,13.8
	c-7.4-0.6-13.9-7.3-13.8-15.3c0.2-14.3,0.1-28.7,0.1-43c0-4.4,2.3-7.7,5.7-9.9c4.4-2.8,7.5-5.6,6.5-11.5c-0.4-2.6,0.5-5.5,1.2-8.1
	C36,73,42.8,57.7,54.2,44.3c4.1-4.8,15-16,32.6-23.7C94.3,17.3,100.9,15.6,105.8,14.6z M181.3,67.5c-4.9-8.7-10.8-16.4-18.7-22.8
	c-16.8-13.6-35.6-19.1-56.8-15.1c-28.9,5.4-47,23.5-56.9,50.3c-2.8,7.5-3.4,15.7-5.6,23.4c-1,3.6,0,5.1,3,6.4
	c5.7-36.6,33.2-62.2,65.5-65c18.2-1.6,35,3.4,49.1,14.9c15.7,12.8,25.5,29.6,28.2,50.2c5.8-2.2,3-6.2,2.7-9.6
	C190.8,88.7,187,78.2,181.3,67.5z"/>
</svg>
